Coordinates
version=1
nRows=8
nColumns=40
inDegrees=yes

Units are S.I. units (second, meters, Newtons, ...)
If the header above contains a line with 'inDegrees', this indicates whether rotational values are in degrees (yes) or radians (no).

endheader
time	pelvis_tilt	pelvis_list	pelvis_rotation	pelvis_tx	pelvis_ty	pelvis_tz	hip_flexion_r	hip_adduction_r	hip_rotation_r	knee_angle_r	knee_angle_r_beta	ankle_angle_r	subtalar_angle_r	mtp_angle_r	hip_flexion_l	hip_adduction_l	hip_rotation_l	knee_angle_l	knee_angle_l_beta	ankle_angle_l	subtalar_angle_l	mtp_angle_l	lumbar_extension	lumbar_bending	lumbar_rotation	arm_flex_r	arm_add_r	arm_rot_r	elbow_flex_r	pro_sup_r	wrist_flex_r	wrist_dev_r	arm_flex_l	arm_add_l	arm_rot_l	elbow_flex_l	pro_sup_l	wrist_flex_l	wrist_dev_l
      4.64000000	     -9.31541400	     -9.56762706	      3.12835985	     -0.32781769	      0.77683013	     -0.97753882	     61.09259130	      0.84448512	     -6.04887000	     10.90661480	      0.19035634	    -18.79501907	      0.00000000	      0.00000000	     60.05334733	     -7.09530568	      1.67882641	     83.28909313	      1.45366891	     21.14391182	      0.00000000	      0.00000000	    -14.57383766	      2.49926803	      4.99390821	     89.93122858	    -13.39256495	     12.60881086	     35.39467180	     79.80526604	      0.00000000	      0.00000000	     89.94454403	    -26.37949583	     17.82025156	     43.87337869	     82.67159393	      0.00000000	      0.00000000
      4.64500000	     -9.33119035	     -9.57727597	      3.14847859	     -0.32778266	      0.77797160	     -0.97747875	     61.03316020	      0.85024268	     -6.04604146	     10.92162577	      0.19061833	    -18.80364795	      0.00000000	      0.00000000	     60.04020895	     -7.11022577	      1.68671256	     83.24025682	      1.45281655	     21.12009843	      0.00000000	      0.00000000	    -14.48054311	      2.49810133	      4.97694731	     89.93126275	    -13.41208938	     12.59691955	     35.42267209	     79.80361087	      0.00000000	      0.00000000	     89.94449694	    -26.40018575	     17.80339848	     43.88902503	     82.67079576	      0.00000000	      0.00000000
      4.65000000	     -9.39616824	     -9.64746194	      3.17945186	     -0.32770295	      0.77933567	     -0.97739577	     60.99288654	      0.88971561	     -6.03000381	     10.92947477	      0.19075532	    -18.82314679	      0.00000000	      0.00000000	     59.85822527	     -7.16868634	      1.67645510	     82.74940829	      1.44424963	     20.94118672	      0.00000000	      0.00000000	    -14.34490830	      2.58210577	      4.93898269	     89.93112265	    -13.42989240	     12.63060341	     35.40043318	     79.80528892	      0.00000000	      0.00000000	     89.94457318	    -26.43491133	     17.75239406	     43.78904263	     82.67238665	      0.00000000	      0.00000000
      4.65500000	     -9.41990772	     -9.64438634	      3.26744539	     -0.32766067	      0.78062365	     -0.97748545	     60.91260169	      0.82278998	     -6.05077070	     10.91439159	      0.19049207	    -18.80371203	      0.00000000	      0.00000000	     59.73165211	     -7.12877462	      1.68443734	     82.44060053	      1.43885992	     20.80404962	      0.00000000	      0.00000000	    -14.23655978	      2.58830270	      4.86566347	     89.93120948	    -13.42926658	     12.67654233	     35.36655544	     79.80573448	      0.00000000	      0.00000000	     89.94434326	    -26.42201967	     17.70154579	     43.72148893	     82.67707129	      0.00000000	      0.00000000
      4.66000000	     -9.41653228	     -9.61990923	      3.25103939	     -0.32752774	      0.78200994	     -0.97739114	     60.81790299	      0.85345477	     -6.06450512	     10.93813339	      0.19090644	    -18.77823748	      0.00000000	      0.00000000	     59.53038554	     -7.13458222	      1.65763152	     82.12930599	      1.43342680	     20.65071821	      0.00000000	      0.00000000	    -14.16963863	      2.55500373	      4.86678390	     89.93121166	    -13.41936658	     12.68236049	     35.35345504	     79.80381144	      0.00000000	      0.00000000	     89.94428189	    -26.45500551	     17.65564175	     43.66765784	     82.68278905	      0.00000000	      0.00000000
      4.66500000	     -9.45693666	     -9.61524050	      3.26895039	     -0.32744650	      0.78329486	     -0.97729696	     60.77862759	      0.86202689	     -6.11178704	     10.95503310	      0.19120140	    -18.81231324	      0.00000000	      0.00000000	     59.41920200	     -7.15804190	      1.59914633	     81.86178620	      1.42875770	     20.54902527	      0.00000000	      0.00000000	    -14.05244324	      2.53139609	      4.84773198	     89.93119725	    -13.43998149	     12.67873052	     35.36215410	     79.80085127	      0.00000000	      0.00000000	     89.94414713	    -26.48327154	     17.63716946	     43.63955858	     82.68932003	      0.00000000	      0.00000000
      4.67000000	     -9.49545027	     -9.60439411	      3.28498962	     -0.32736304	      0.78453675	     -0.97728354	     60.73362835	      0.85689400	     -6.11535484	     10.98450372	      0.19171576	    -18.79309923	      0.00000000	      0.00000000	     59.30657668	     -7.16931656	      1.55259832	     81.58131799	      1.42386261	     20.42660548	      0.00000000	      0.00000000	    -13.94907658	      2.50750826	      4.82769060	     89.93173256	    -13.44878023	     12.70981357	     35.41881503	     79.81258504	      0.00000000	      0.00000000	     89.94421601	    -26.50002146	     17.61073476	     43.61792056	     82.69219360	      0.00000000	      0.00000000
      4.67500000	     -9.51716040	     -9.59657481	      3.29421793	     -0.32722235	      0.78572843	     -0.97719680	     60.66354923	      0.86668602	     -6.12229732	     11.00169344	      0.19201577	    -18.79412202	      0.00000000	      0.00000000	     59.28352760	     -7.17471937	      1.55496977	     81.53391830	      1.42303533	     20.39733652	      0.00000000	      0.00000000	    -13.83560987	      2.49341903	      4.83987780	     89.93145715	    -13.45977803	     12.70195646	     35.45120095	     79.81259922	      0.00000000	      0.00000000	     89.94401897	    -26.51876989	     17.59635559	     43.63925227	     82.69198086	      0.00000000	      0.00000000
